# xmcd
#
# Track frame offsets: 
#        150
#        17647
#        31005
#        44842
#        55339
#        71250
#        88420
#        110327
#        127142
#        142127
#        165017
#        179517
#        191815
#
# Disc length: 2843 seconds
#
# Revision: 0
# Processed by: cddbd v1.4PL0 Copyright (c) Steve Scherf et al.
# Submitted via: ExactAudioCopy v0.90b4
#
DISCID=ba0b190d
DTITLE=Kingfish - Best of Kingfish
DYEAR=1996
DGENRE=Blues
TTITLE0=Statesboro Blues
TTITLE1=Next Time You See Me
TTITLE2=Hidden Charms
TTITLE3=School Days
TTITLE4=Dangerous Relations
TTITLE5=If That's the Way
TTITLE6=Put Your Hand on Me, Babe
TTITLE7=Money Honey
TTITLE8=Mona
TTITLE9=Riding High
TTITLE10=Taste of the Devil
TTITLE11=Rip It Up
TTITLE12=Key to the Highway
EXTD=
EXTT0=
EXTT1=
EXTT2=
EXTT3=
EXTT4=
EXTT5=
EXTT6=
EXTT7=
EXTT8=
EXTT9=
EXTT10=
EXTT11=
EXTT12=
PLAYORDER=
